<svg width="640" height="760" viewBox="0 0 640 760" fill="none" xmlns="http://www.w3.org/2000/svg">
  <defs>
    <linearGradient id="cover" x1="154" y1="88" x2="500" y2="640" gradientUnits="userSpaceOnUse">
      <stop stop-color="#F7E7C3"/>
      <stop offset="0.44" stop-color="#D7A74F"/>
      <stop offset="1" stop-color="#3A271C"/>
    </linearGradient>
    <linearGradient id="pages" x1="118" y1="114" x2="455" y2="660" gradientUnits="userSpaceOnUse">
      <stop stop-color="#FFF8EC"/>
      <stop offset="1" stop-color="#D9C6A6"/>
    </linearGradient>
    <linearGradient id="spine" x1="132" y1="100" x2="214" y2="658" gradientUnits="userSpaceOnUse">
      <stop stop-color="#2D211A"/>
      <stop offset="1" stop-color="#120F0D"/>
    </linearGradient>
    <filter id="glow" x="38" y="28" width="558" height="690" filterUnits="userSpaceOnUse" color-interpolation-filters="sRGB">
      <feFlood flood-opacity="0" result="BackgroundImageFix"/>
      <feGaussianBlur in="BackgroundImageFix" stdDeviation="2"/>
      <feDropShadow dx="0" dy="42" stdDeviation="42" flood-color="#050403" flood-opacity="0.42"/>
      <feDropShadow dx="0" dy="0" stdDeviation="22" flood-color="#D7A74F" flood-opacity="0.2"/>
    </filter>
    <clipPath id="bookClip">
      <path d="M150 107C150 82 169 64 194 69L486 128C505 132 520 151 520 171V619C520 647 495 668 468 662L182 600C163 596 150 579 150 559V107Z"/>
    </clipPath>
  </defs>
  <ellipse cx="322" cy="671" rx="210" ry="42" fill="#050403" opacity="0.25"/>
  <g filter="url(#glow)">
    <path d="M110 136C110 102 137 80 170 87L456 146C485 152 508 180 508 210V627C508 662 475 687 441 678L159 608C130 601 110 575 110 546V136Z" fill="url(#pages)"/>
    <path d="M150 107C150 82 169 64 194 69L486 128C505 132 520 151 520 171V619C520 647 495 668 468 662L182 600C163 596 150 579 150 559V107Z" fill="url(#cover)"/>
    <path d="M150 107C150 82 169 64 194 69L223 75V609L182 600C163 596 150 579 150 559V107Z" fill="url(#spine)"/>
    <g clip-path="url(#bookClip)">
      <path d="M245 145L486 194" stroke="#FFF8EC" stroke-opacity="0.18" stroke-width="2"/>
      <path d="M246 585L489 636" stroke="#FFF8EC" stroke-opacity="0.16" stroke-width="2"/>
      <path d="M276 221L448 257" stroke="#FFF8EC" stroke-opacity="0.38" stroke-width="10" stroke-linecap="round"/>
      <path d="M276 258L410 286" stroke="#FFF8EC" stroke-opacity="0.25" stroke-width="8" stroke-linecap="round"/>
      <path d="M276 306L468 347" stroke="#14110F" stroke-opacity="0.2" stroke-width="3" stroke-linecap="round"/>
      <path d="M276 331L438 365" stroke="#14110F" stroke-opacity="0.18" stroke-width="3" stroke-linecap="round"/>
      <path d="M276 356L452 393" stroke="#14110F" stroke-opacity="0.16" stroke-width="3" stroke-linecap="round"/>
      <circle cx="374" cy="468" r="73" fill="#14110F" opacity="0.12"/>
      <circle cx="374" cy="468" r="45" stroke="#FFF8EC" stroke-opacity="0.42" stroke-width="6"/>
      <path d="M213 94V608" stroke="#F4E8D3" stroke-opacity="0.22" stroke-width="3"/>
    </g>
    <path d="M128 143C128 116 149 99 176 104L150 112V562C150 584 164 601 185 606L441 668C408 680 374 670 336 661L159 617C130 610 110 584 110 554V136L128 143Z" fill="#FFF8EC" opacity="0.26"/>
  </g>
  <path d="M506 176C532 216 543 293 540 407C536 522 526 593 510 621" stroke="#FFF8EC" stroke-opacity="0.18" stroke-width="4" stroke-linecap="round"/>
</svg>
